{"accessors":[{"bufferView":0,"componentType":5126,"count":22766,"max":[1.3151227235794067,3.546815872192383,1.2486960887908936],"min":[-1.2472599744796753,-0.36851298809051514,-1.2486900091171265],"type":"VEC3"},{"bufferView":1,"componentType":5125,"count":42427,"type":"SCALAR"},{"bufferView":2,"componentType":5126,"count":22766,"type":"VEC3"},{"bufferView":3,"componentType":5126,"count":22766,"type":"VEC4"},{"bufferView":4,"componentType":5126,"count":22766,"type":"VEC2"},{"bufferView":5,"componentType":5126,"count":3095,"max":[1.2820320129394531,0.8340333700180054,1.2771698236465454],"min":[-1.273859977722168,-0.3685140013694763,-1.27715003490448],"type":"VEC3"},{"bufferView":6,"componentType":5125,"count":5820,"type":"SCALAR"},{"bufferView":7,"componentType":5126,"count":3095,"type":"VEC3"},{"bufferView":8,"componentType":5126,"count":3095,"type":"VEC4"},{"bufferView":9,"componentType":5126,"count":3095,"type":"VEC2"},{"bufferView":10,"componentType":5126,"count":457,"max":[0.9096866250038147,0.999996542930603,0.9096866250038147],"min":[-0.9096869826316833,-1.4693200588226318,-0.9096869826316833],"type":"VEC3"},{"bufferView":11,"componentType":5125,"count":1036,"type":"SCALAR"},{"bufferView":12,"componentType":5126,"count":457,"type":"VEC3"},{"bufferView":13,"componentType":5126,"count":457,"type":"VEC4"},{"bufferView":14,"componentType":5126,"count":457,"type":"VEC2"},{"bufferView":15,"componentType":5126,"count":1750,"max":[0.8075140118598938,0.9766480326652527,0.7856152057647705],"min":[-1.4513299465179443,-1.7901999950408936,-2.7746500968933105],"type":"VEC3"},{"bufferView":16,"componentType":5125,"count":4073,"type":"SCALAR"},{"bufferView":17,"componentType":5126,"count":1750,"type":"VEC3"},{"bufferView":18,"componentType":5126,"count":1750,"type":"VEC4"},{"bufferView":19,"componentType":5126,"count":1750,"type":"VEC2"},{"bufferView":20,"componentType":5126,"count":2860,"max":[0.031122645363211632,0.02099176123738289,0.02560034580528736],"min":[-0.021570000797510147,-0.01701980084180832,-0.024953799322247505],"type":"VEC3"},{"bufferView":21,"componentType":5125,"count":6468,"type":"SCALAR"},{"bufferView":22,"componentType":5126,"count":2860,"type":"VEC3"},{"bufferView":23,"componentType":5126,"count":2860,"type":"VEC4"},{"bufferView":24,"componentType":5126,"count":2860,"type":"VEC2"},{"bufferView":25,"componentType":5126,"count":208,"max":[0.23220029473304749,6.450000089586183e-9,0.2639801800251007],"min":[-0.7478029727935791,-0.005159149877727032,-0.2639800012111664],"type":"VEC3"},{"bufferView":26,"componentType":5125,"count":326,"type":"SCALAR"},{"bufferView":27,"componentType":5126,"count":208,"type":"VEC3"},{"bufferView":28,"componentType":5126,"count":208,"type":"VEC4"},{"bufferView":29,"componentType":5126,"count":208,"type":"VEC2"},{"bufferView":30,"componentType":5126,"count":4,"max":[0.8249490857124329,0,0.8249490857124329],"min":[-0.8249459862709045,0,-0.8249459862709045],"type":"VEC3"},{"bufferView":31,"componentType":5121,"count":4,"type":"SCALAR"},{"bufferView":32,"componentType":5126,"count":4,"type":"VEC3"},{"bufferView":33,"componentType":5126,"count":4,"type":"VEC4"},{"bufferView":34,"componentType":5126,"count":4,"type":"VEC2"},{"bufferView":35,"componentType":5126,"count":312,"max":[12.069120407104492,37.36381530761719,5.502014636993408],"min":[-64.07679748535156,-84.93769836425781,2.6888198852539062],"type":"VEC3"},{"bufferView":36,"componentType":5125,"count":444,"type":"SCALAR"},{"bufferView":37,"componentType":5126,"count":312,"type":"VEC3"},{"bufferView":38,"componentType":5126,"count":312,"type":"VEC4"},{"bufferView":39,"componentType":5126,"count":312,"type":"VEC2"},{"bufferView":40,"componentType":5126,"count":3400,"max":[29.02223014831543,46.230525970458984,10.878191947937012],"min":[-29.999000549316406,-58.71889877319336,-12.99839973449707],"type":"VEC3"},{"bufferView":41,"componentType":5125,"count":5039,"type":"SCALAR"},{"bufferView":42,"componentType":5126,"count":3400,"type":"VEC3"},{"bufferView":43,"componentType":5126,"count":3400,"type":"VEC4"},{"bufferView":44,"componentType":5126,"count":3400,"type":"VEC2"},{"bufferView":45,"componentType":5126,"count":3818,"max":[23.73988151550293,45.331298828125,13.326348304748535],"min":[-30.48590087890625,-37.00659942626953,-11.594200134277344],"type":"VEC3"},{"bufferView":46,"componentType":5125,"count":6664,"type":"SCALAR"},{"bufferView":47,"componentType":5126,"count":3818,"type":"VEC3"},{"bufferView":48,"componentType":5126,"count":3818,"type":"VEC4"},{"bufferView":49,"componentType":5126,"count":3818,"type":"VEC2"}],"asset":{"version":"2.0"},"bufferViews":[{"buffer":0,"byteLength":273192,"target":34962},{"buffer":1,"byteLength":169708,"target":34963},{"buffer":2,"byteLength":273192,"target":34962},{"buffer":3,"byteLength":364256,"target":34962},{"buffer":4,"byteLength":182128,"target":34962},{"buffer":5,"byteLength":37140,"target":34962},{"buffer":6,"byteLength":23280,"target":34963},{"buffer":7,"byteLength":37140,"target":34962},{"buffer":8,"byteLength":49520,"target":34962},{"buffer":9,"byteLength":24760,"target":34962},{"buffer":10,"byteLength":5484,"target":34962},{"buffer":11,"byteLength":4144,"target":34963},{"buffer":12,"byteLength":5484,"target":34962},{"buffer":13,"byteLength":7312,"target":34962},{"buffer":14,"byteLength":3656,"target":34962},{"buffer":15,"byteLength":21000,"target":34962},{"buffer":16,"byteLength":16292,"target":34963},{"buffer":17,"byteLength":21000,"target":34962},{"buffer":18,"byteLength":28000,"target":34962},{"buffer":19,"byteLength":14000,"target":34962},{"buffer":20,"byteLength":34320,"target":34962},{"buffer":21,"byteLength":25872,"target":34963},{"buffer":22,"byteLength":34320,"target":34962},{"buffer":23,"byteLength":45760,"target":34962},{"buffer":24,"byteLength":22880,"target":34962},{"buffer":25,"byteLength":2496,"target":34962},{"buffer":26,"byteLength":1304,"target":34963},{"buffer":27,"byteLength":2496,"target":34962},{"buffer":28,"byteLength":3328,"target":34962},{"buffer":29,"byteLength":1664,"target":34962},{"buffer":30,"byteLength":48,"target":34962},{"buffer":31,"byteLength":4,"target":34963},{"buffer":32,"byteLength":48,"target":34962},{"buffer":33,"byteLength":64,"target":34962},{"buffer":34,"byteLength":32,"target":34962},{"buffer":35,"byteLength":3744,"target":34962},{"buffer":36,"byteLength":1776,"target":34963},{"buffer":37,"byteLength":3744,"target":34962},{"buffer":38,"byteLength":4992,"target":34962},{"buffer":39,"byteLength":2496,"target":34962},{"buffer":40,"byteLength":40800,"target":34962},{"buffer":41,"byteLength":20156,"target":34963},{"buffer":42,"byteLength":40800,"target":34962},{"buffer":43,"byteLength":54400,"target":34962},{"buffer":44,"byteLength":27200,"target":34962},{"buffer":45,"byteLength":45816,"target":34962},{"buffer":46,"byteLength":26656,"target":34963},{"buffer":47,"byteLength":45816,"target":34962},{"buffer":48,"byteLength":61088,"target":34962},{"buffer":49,"byteLength":30544,"target":34962}],"buffers":[{"byteLength":273192,"uri":"data:application/octet-stream;base64,"},{"byteLength":169708,"uri":"data:application/octet-stream;base64,"},{"byteLength":273192,"uri":"data:application/octet-stream;base64,"},{"byteLength":364256,"uri":"data:application/octet-stream;base64,"},{"byteLength":182128,"uri":"data:application/octet-stream;base64,"},{"byteLength":37140,"uri":"data:application/octet-stream;base64,"},{"byteLength":23280,"uri":"data:application/octet-stream;base64,"},{"byteLength":37140,"uri":"data:application/octet-stream;base64,"},{"byteLength":49520,"uri":"data:application/octet-stream;base64,"},{"byteLength":24760,"uri":"data:application/octet-stream;base64,"},{"byteLength":5484,"uri":"data:application/octet-stream;base64,"},{"byteLength":4144,"uri":"data:application/octet-stream;base64,"},{"byteLength":5484,"uri":"data:application/octet-stream;base64,"},{"byteLength":7312,"uri":"data:application/octet-stream;base64,"},{"byteLength":3656,"uri":"data:application/octet-stream;base64,"},{"byteLength":21000,"uri":"data:application/octet-stream;base64,"},{"byteLength":16292,"uri":"data:application/octet-stream;base64,"},{"byteLength":21000,"uri":"data:application/octet-stream;base64,"},{"byteLength":28000,"uri":"data:application/octet-stream;base64,"},{"byteLength":14000,"uri":"data:application/octet-stream;base64,"},{"byteLength":34320,"uri":"data:application/octet-stream;base64,"},{"byteLength":25872,"uri":"data:application/octet-stream;base64,"},{"byteLength":34320,"uri":"data:application/octet-stream;base64,"},{"byteLength":45760,"uri":"data:application/octet-stream;base64,"},{"byteLength":22880,"uri":"data:application/octet-stream;base64,"},{"byteLength":2496,"uri":"data:application/octet-stream;base64,"},{"byteLength":1304,"uri":"data:application/octet-stream;base64,"},{"byteLength":2496,"uri":"data:application/octet-stream;base64,"},{"byteLength":3328,"uri":"data:application/octet-stream;base64,"},{"byteLength":1664,"uri":"data:application/octet-stream;base64,"},{"byteLength":48,"uri":"data:application/octet-stream;base64,"},{"byteLength":4,"uri":"data:application/octet-stream;base64,"},{"byteLength":48,"uri":"data:application/octet-stream;base64,"},{"byteLength":64,"uri":"data:application/octet-stream;base64,"},{"byteLength":32,"uri":"data:application/octet-stream;base64,"},{"byteLength":3744,"uri":"data:application/octet-stream;base64,"},{"byteLength":1776,"uri":"data:application/octet-stream;base64,"},{"byteLength":3744,"uri":"data:application/octet-stream;base64,"},{"byteLength":4992,"uri":"data:application/octet-stream;base64,"},{"byteLength":2496,"uri":"data:application/octet-stream;base64,"},{"byteLength":40800,"uri":"data:application/octet-stream;base64,"},{"byteLength":20156,"uri":"data:application/octet-stream;base64,"},{"byteLength":40800,"uri":"data:application/octet-stream;base64,"},{"byteLength":54400,"uri":"data:application/octet-stream;base64,"},{"byteLength":27200,"uri":"data:application/octet-stream;base64,"},{"byteLength":45816,"uri":"data:application/octet-stream;base64,"},{"byteLength":26656,"uri":"data:application/octet-stream;base64,"},{"byteLength":45816,"uri":"data:application/octet-stream;base64,"},{"byteLength":61088,"uri":"data:application/octet-stream;base64,"},{"byteLength":30544,"uri":"data:application/octet-stream;base64,"}],"materials":[{"doubleSided":false,"name":"OIL","pbrMetallicRoughness":{"baseColorFactor":[0.95,0.78,0.1,0.96],"metallicFactor":0,"roughnessFactor":0.25},"alphaMode":"BLEND"},{"doubleSided":true,"name":"OLIVE","pbrMetallicRoughness":{"baseColorTexture":{"index":1},"baseColorFactor":[1,1,1,1],"metallicFactor":0,"roughnessFactor":0.8}},{"doubleSided":true,"name":"ROSEMARY","normalTexture":{"index":5,"scale":2},"pbrMetallicRoughness":{"baseColorTexture":{"index":3},"metallicFactor":0,"metallicRoughnessTexture":{"index":6},"baseColorFactor":[1,1,1,1],"roughnessFactor":0.8}},{"doubleSided":false,"name":"ROPE","pbrMetallicRoughness":{"baseColorFactor":[0.55,0.42,0.25,1],"metallicFactor":0,"roughnessFactor":0.9}},{"doubleSided":true,"name":"BOTTLE","normalTexture":{"index":4,"scale":2},"pbrMetallicRoughness":{"baseColorTexture":{"index":2},"baseColorFactor":[1,1,1,1],"metallicFactor":0,"roughnessFactor":0.8}},{"doubleSided":true,"name":"FLOOR","alphaTexture":{"index":7},"alphaCutoff":0.5,"alphaMode":"BLEND","pbrMetallicRoughness":{"baseColorTexture":{"index":0},"baseColorFactor":[1,1,1,1],"metallicFactor":0,"roughnessFactor":0.8}},{"doubleSided":true,"name":"material_0","pbrMetallicRoughness":{"baseColorTexture":{"index":1},"baseColorFactor":[1,1,1,1],"metallicFactor":0,"roughnessFactor":0.8}},{"name":"GLASS","pbrMetallicRoughness":{"baseColorFactor":[0.88,0.92,0.88,0.22],"metallicFactor":0,"roughnessFactor":0.06},"alphaMode":"BLEND","doubleSided":true}],"images":[{"uri":"1da30684971246d4ad5aa55ca4feaf8b_RGB_plytki-granit-juparana-60-x-60-x-15-cm-polerowane-Circle.png"},{"uri":"5b39516e841b45648d94c862d74a7f5d_RGB_olive.png"},{"uri":"6065bd07f5b44422a0ee8b1b8fd7327a_RGB_TAG_C.png"},{"uri":"662a3f483b1c49b38f3af237ff823a61_RGB_list.jpeg"},{"uri":"75bf8705fdc34db38ccb51f9cb4b09eb_N_TAG_n.png"},{"uri":"77d94316f6974a6e8400a86396443bfa_N_bamp.jpeg"},{"uri":"9659337e423f43d5b7cb4b3760a8cd71_R_bamp-1@channels=G.png"},{"uri":"d44fc339452747999479f6867e7fd340_R_Circle.png"}],"textures":[{"source":0},{"source":1},{"source":2},{"source":3},{"source":4},{"source":5},{"source":6},{"source":7}],"meshes":[{"primitives":[{"attributes":{"NORMAL":2,"POSITION":0,"TANGENT":3,"TEXCOORD_0":4},"indices":1,"material":7,"mode":5}]},{"primitives":[{"attributes":{"NORMAL":7,"POSITION":5,"TANGENT":8,"TEXCOORD_0":9},"indices":6,"material":0,"mode":5}]},{"primitives":[{"attributes":{"NORMAL":12,"POSITION":10,"TANGENT":13,"TEXCOORD_0":14},"indices":11,"material":4,"mode":5}]},{"primitives":[{"attributes":{"NORMAL":17,"POSITION":15,"TANGENT":18,"TEXCOORD_0":19},"indices":16,"material":1,"mode":5}]},{"primitives":[{"attributes":{"NORMAL":22,"POSITION":20,"TANGENT":23,"TEXCOORD_0":24},"indices":21,"mode":5,"material":3}]},{"primitives":[{"attributes":{"NORMAL":27,"POSITION":25,"TANGENT":28,"TEXCOORD_0":29},"indices":26,"material":4,"mode":5}]},{"primitives":[{"attributes":{"NORMAL":32,"POSITION":30,"TANGENT":33,"TEXCOORD_0":34},"indices":31,"material":5,"mode":5}]},{"primitives":[{"attributes":{"NORMAL":37,"POSITION":35,"TANGENT":38,"TEXCOORD_0":39},"indices":36,"material":2,"mode":5}]},{"primitives":[{"attributes":{"NORMAL":42,"POSITION":40,"TANGENT":43,"TEXCOORD_0":44},"indices":41,"material":1,"mode":5}]},{"primitives":[{"attributes":{"NORMAL":47,"POSITION":45,"TANGENT":48,"TEXCOORD_0":49},"indices":46,"material":2,"mode":5}]}],"nodes":[{"mesh":0,"name":"_gltfNode_0"},{"children":[0],"name":"Cube_0","rotation":[0,-0.30442417590863796,0,0.9525365720655279],"scale":[0.7838636636734009,0.7838640213012695,0.7838636636734009],"translation":[0.2836639881134033,0.31646600365638733,0.15598000586032867]},{"mesh":1,"name":"_gltfNode_2"},{"children":[2],"name":"Cube.001_1","rotation":[0,-0.30442429045167707,0,0.9525365354583482],"scale":[0.754537045955658,0.7545369863510132,0.7287532687187195],"translation":[0.2836639881134033,0.39726099371910095,0.15598000586032867]},{"mesh":2,"name":"_gltfNode_4"},{"children":[4],"name":"Cube.003_2","rotation":[0,0.9484498075517974,0,-0.316927377414698],"scale":[0.300998330116272,0.3009980022907257,0.300998330116272],"translation":[0.2836639881134033,2.9137299060821533,0.15598000586032867]},{"mesh":3,"name":"_gltfNode_6"},{"children":[6],"name":"Sphere.005_3","rotation":[0.866229639959848,0.3933999685120475,-0.2706388042093907,-0.1470962721685644],"scale":[0.2725754380226135,0.22048106789588928,0.27257511019706726],"translation":[-0.9696149826049805,0.22805100679397583,-0.0759252980351448]},{"mesh":4,"name":"_gltfNode_8"},{"children":[8],"name":"rope_4","rotation":[0.10171658600150177,-0.5585352697238097,-0.34819145057469186,0.7459589816829354],"scale":[12.849294662475586,12.8493013381958,12.84925651550293],"translation":[0.2836639881134033,2.838279962539673,0.1559789925813675]},{"mesh":5,"name":"_gltfNode_10"},{"children":[10],"name":"Plane.001_5","rotation":[0.46677754009873734,0.5311484525559914,0.4667775102964421,0.5311485717652058],"scale":[1.000000238418579,1.000000238418579,1],"translation":[0.3114910125732422,2.5948100090026855,0.5822629928588867]},{"mesh":6,"name":"_gltfNode_12"},{"children":[12],"name":"Plane_6","rotation":[0,0,0,1],"scale":[3.457360029220581,3.457360029220581,3.457360029220581],"translation":[0,0,0]},{"mesh":7,"name":"_gltfNode_14"},{"children":[14],"name":"01.002_7","rotation":[-0.05405118162122032,-0.7050378912828008,0.7050379508874859,-0.05405117417065454],"scale":[0.027323303744196892,0.027323303744196892,0.027323300018906593],"translation":[-0.46694400906562805,0.14885300397872925,-0.6713939905166626]},{"mesh":8,"name":"_gltfNode_16"},{"children":[16],"name":"01.001_8","rotation":[0.23076433061240675,-0.6683919167332919,0.6683920359426652,0.23076428590885356],"scale":[0.020280273631215096,0.020280273631215096,0.020280299708247185],"translation":[-1.1891000270843506,0.14885300397872925,0.012177299708127975]},{"mesh":9,"name":"_gltfNode_18"},{"children":[18],"name":"01.003_9","rotation":[0.32836885187503156,0.2477206498769609,0.9084263219134392,0.07463239509509445],"scale":[0.020343197509646416,0.02034316025674343,0.020343171432614326],"translation":[0.3597930073738098,1.087380051612854,0.05236700177192688]},{"children":[1,3,5,7,9,11,13,15,17,19],"name":"GLTF_SceneRootNode","rotation":[-1.9753748434203095e-22,0,0,1],"scale":[1,1,1],"translation":[0,0,0]}],"scene":0,"scenes":[{"nodes":[20]}]}